<?xml version="1.0" encoding="utf-8"?>
<!-- Generator: Adobe Illustrator 14.0.0, SVG Export Plug-In . SVG Version: 6.00 Build 43363)  -->
<!DOCTYPE svg PUBLIC "-//W3C//DTD SVG 1.1//EN" "http://www.w3.org/Graphics/SVG/1.1/DTD/svg11.dtd">
<svg version="1.1" id="Layer_1" xmlns="http://www.w3.org/2000/svg" xmlns:xlink="http://www.w3.org/1999/xlink" x="0px" y="0px"
	 width="256px" height="256px" viewBox="0 0 256 256" enable-background="new 0 0 256 256" xml:space="preserve">
<linearGradient id="SVGID_1_" gradientUnits="userSpaceOnUse" x1="152.251" y1="-158.0298" x2="203.7488" y2="134.0292" gradientTransform="matrix(1 0 0 -1 -50 116)">
	<stop  offset="0" style="stop-color:#4CA6CF"/>
	<stop  offset="0.1697" style="stop-color:#3F97BF"/>
	<stop  offset="0.445" style="stop-color:#2E84AB"/>
	<stop  offset="0.7217" style="stop-color:#24799F"/>
	<stop  offset="1" style="stop-color:#21759B"/>
</linearGradient>
<rect fill="url(#SVGID_1_)" width="256" height="256"/>
<g>
	<g>
		<path d="M31.826,31.779h158.85v105.899l-52.95,52.95h-105.9V31.779z M58.3,58.254v8.825h105.9v-8.825H58.3z M58.3,93.554v8.825
			h105.9v-8.825H58.3z M111.25,137.679v-8.824H58.3v8.824H111.25z M128.9,172.979l44.125-44.125H128.9V172.979z"/>
	</g>
	<g>
		<linearGradient id="SVGID_2_" gradientUnits="userSpaceOnUse" x1="29.8257" y1="109.2041" x2="188.6758" y2="109.2041">
			<stop  offset="0" style="stop-color:#4CA6CF"/>
			<stop  offset="0.1697" style="stop-color:#3F97BF"/>
			<stop  offset="0.445" style="stop-color:#2E84AB"/>
			<stop  offset="0.7217" style="stop-color:#24799F"/>
			<stop  offset="1" style="stop-color:#21759B"/>
		</linearGradient>
		<path fill="url(#SVGID_2_)" d="M29.826,29.779h158.85v105.899l-52.95,52.95h-105.9V29.779z M56.3,56.254v8.825h105.9v-8.825H56.3z
			 M56.3,91.554v8.825h105.9v-8.825H56.3z M109.25,135.679v-8.824H56.3v8.824H109.25z M126.9,170.979l44.125-44.125H126.9V170.979z"
			/>
	</g>
	<g>
		<path fill="#FFFFFF" d="M27.826,27.779h158.85v105.899l-52.95,52.95h-105.9V27.779z M54.3,54.254v8.825h105.9v-8.825H54.3z
			 M54.3,89.554v8.825h105.9v-8.825H54.3z M107.25,133.679v-8.824H54.3v8.824H107.25z M124.9,168.979l44.125-44.125H124.9V168.979z"
			/>
	</g>
</g>
<g>
	<g>
		<path d="M219.453,137.869l20.867,20.943c1.745,1.798,2.605,3.954,2.58,6.469c-0.026,2.516-0.809,4.569-2.349,6.16l-61.677,61.754
			l-42.813,8.933l8.932-42.967c39.013-39.167,59.521-59.777,61.523-61.831c1.488-1.54,3.58-2.271,6.275-2.195
			C215.488,135.213,217.708,136.125,219.453,137.869z M198.433,159.352l-43.043,43.197l8.547,8.548l42.658-43.505L198.433,159.352z
			 M175.563,222.724l42.966-43.12l-8.238-8.316l-43.044,43.12L175.563,222.724z"/>
	</g>
	<g>
		<linearGradient id="SVGID_3_" gradientUnits="userSpaceOnUse" x1="134.0625" y1="186.6289" x2="240.9014" y2="186.6289">
			<stop  offset="0" style="stop-color:#4CA6CF"/>
			<stop  offset="0.1697" style="stop-color:#3F97BF"/>
			<stop  offset="0.445" style="stop-color:#2E84AB"/>
			<stop  offset="0.7217" style="stop-color:#24799F"/>
			<stop  offset="1" style="stop-color:#21759B"/>
		</linearGradient>
		<path fill="url(#SVGID_3_)" d="M217.453,135.869l20.867,20.943c1.745,1.798,2.605,3.954,2.58,6.469
			c-0.026,2.516-0.809,4.569-2.349,6.16l-61.677,61.754l-42.813,8.933l8.932-42.967c39.013-39.167,59.521-59.777,61.523-61.831
			c1.488-1.54,3.58-2.271,6.275-2.195C213.488,133.213,215.708,134.125,217.453,135.869z M196.433,157.352l-43.043,43.197
			l8.547,8.548l42.658-43.505L196.433,157.352z M173.563,220.724l42.966-43.12l-8.238-8.316l-43.044,43.12L173.563,220.724z"/>
	</g>
	<g>
		<path fill="#FFFFFF" d="M215.453,133.869l20.867,20.943c1.745,1.798,2.605,3.954,2.58,6.469c-0.026,2.516-0.809,4.569-2.349,6.16
			l-61.677,61.754l-42.813,8.933l8.932-42.967c39.013-39.167,59.521-59.777,61.523-61.831c1.488-1.54,3.58-2.271,6.275-2.195
			C211.488,131.213,213.708,132.125,215.453,133.869z M194.433,155.352l-43.043,43.197l8.547,8.548l42.658-43.505L194.433,155.352z
			 M171.563,218.724l42.966-43.12l-8.238-8.316l-43.044,43.12L171.563,218.724z"/>
	</g>
</g>
</svg>
